# xmcd
#
# Track frame offsets:
#	150
#	23886
#	45836
#	68530
#	91877
#	114562
#	136635
#	156375
#	179138
#	203363
#	224938
#	247836
#	268910
#	285632
#	312601
#
# Disc length: 4423 seconds
#
# Revision: 2
# Processed by: cddbd v1.5.1PL2 Copyright (c) Steve Scherf et al.
# Submitted via: audiograbber 1.83.01
#
DISCID=d911450f
DTITLE=J.K.Rowling - Harry Potter og Føniksorderen CD3 (Bok 5)
DYEAR=2003
DGENRE=Acoustic
TTITLE0=Harry Potter og Føniksorderen CD03 Spor 0301
TTITLE1=Harry Potter og Føniksorderen CD03 Spor 0302
TTITLE2=Harry Potter og Føniksorderen CD03 Spor 0303
TTITLE3=Harry Potter og Føniksorderen CD03 Spor 0304
TTITLE4=Harry Potter og Føniksorderen CD03 Spor 0305
TTITLE5=Harry Potter og Føniksorderen CD03 Spor 0306
TTITLE6=Harry Potter og Føniksorderen CD03 Spor 0307
TTITLE7=Harry Potter og Føniksorderen CD03 Spor 0308
TTITLE8=Harry Potter og Føniksorderen CD03 Spor 0309
TTITLE9=Harry Potter og Føniksorderen CD03 Spor 0310
TTITLE10=Harry Potter og Føniksorderen CD03 Spor 0311
TTITLE11=Harry Potter og Føniksorderen CD03 Spor 0312
TTITLE12=Harry Potter og Føniksorderen CD03 Spor 0313
TTITLE13=Harry Potter og Føniksorderen CD03 Spor 0314
TTITLE14=Harry Potter og Føniksorderen CD03 Spor 0315
EXTD=
EXTT0=
EXTT1=
EXTT2=
EXTT3=
EXTT4=
EXTT5=
EXTT6=
EXTT7=
EXTT8=
EXTT9=
EXTT10=
EXTT11=
EXTT12=
EXTT13=
EXTT14=
PLAYORDER=
